<svg width="87" height="97" viewBox="0 0 87 97" fill="none" xmlns="http://www.w3.org/2000/svg">
<rect width="87" height="97" rx="6" fill="#672C5F"/>
<path d="M41.3428 49.3027C41.3428 54.2181 40.3255 57.9779 38.291 60.582C36.2565 63.1862 33.278 64.4883 29.3555 64.4883C25.4818 64.4883 22.5195 63.2106 20.4688 60.6553C18.418 58.0999 17.3682 54.4378 17.3193 49.6689V43.126C17.3193 38.1618 18.3447 34.3939 20.3955 31.8223C22.4626 29.2507 25.4329 27.9648 29.3066 27.9648C33.1803 27.9648 36.1426 29.2425 38.1934 31.7979C40.2441 34.3369 41.2939 37.9909 41.3428 42.7598V49.3027ZM34.2871 42.125C34.2871 39.179 33.8802 37.0387 33.0664 35.7041C32.2689 34.3532 31.0156 33.6777 29.3066 33.6777C27.6465 33.6777 26.4176 34.3206 25.6201 35.6064C24.8389 36.876 24.4238 38.8698 24.375 41.5879V50.2305C24.375 53.1276 24.7656 55.2842 25.5469 56.7002C26.3444 58.0999 27.6139 58.7998 29.3555 58.7998C31.0807 58.7998 32.3258 58.1243 33.0908 56.7734C33.8558 55.4225 34.2546 53.3555 34.2871 50.5723V42.125ZM63.2666 64H56.2109V36.8027L47.7881 39.415V33.6777L62.5098 28.4043H63.2666V64Z" fill="white"/>
</svg>
